<svg width="24" height="24" viewBox="0 0 24 24" fill="none" xmlns="http://www.w3.org/2000/svg">
  <defs>
    <!-- ペン周囲をくり抜くマスク -->
    <mask id="notebookMask">
      <rect x="0" y="0" width="24" height="24" fill="white"/>
      <g transform="translate(20, 9) rotate(45)">
        <rect x="-0.5" y="-0.5" width="3" height="9" rx="0.5" fill="black"/>
        <polygon points="-0.5,8 1,11 2.5,8" fill="black"/>
      </g>
    </mask>
  </defs>

  <!-- ノートブック本体（ペン部分をくり抜き） -->
  <path d="M6 2C4.9 2 4 2.9 4 4v16c0 1.1.9 2 2 2h12c1.1 0 2-.9 2-2V4c0-1.1-.9-2-2-2H6z" fill="currentColor" fill-opacity="0.9" mask="url(#notebookMask)"/>

  <!-- バインダーリング -->
  <rect x="2" y="5" width="4" height="2" rx="0.5" fill="currentColor"/>
  <rect x="2" y="9" width="4" height="2" rx="0.5" fill="currentColor"/>
  <rect x="2" y="13" width="4" height="2" rx="0.5" fill="currentColor"/>
  <rect x="2" y="17" width="4" height="2" rx="0.5" fill="currentColor"/>

  <!-- ページライン -->
  <line x1="8" y1="7" x2="17" y2="7" stroke="currentColor" stroke-opacity="0.3" stroke-width="1.5"/>
  <line x1="8" y1="11" x2="17" y2="11" stroke="currentColor" stroke-opacity="0.3" stroke-width="1.5"/>
  <line x1="8" y1="15" x2="14" y2="15" stroke="currentColor" stroke-opacity="0.3" stroke-width="1.5"/>

  <!-- ペン -->
  <g transform="translate(20, 9) rotate(45)">
    <rect x="0" y="0" width="2" height="7.5" rx="0.5" fill="currentColor" stroke="none"/>
    <polygon points="0,7.5 1,10 2,7.5" fill="currentColor" stroke="none"/>
  </g>
</svg>
